<?xml version="1.0" encoding="UTF-8" standalone="no"?>
<!-- Created with Inkscape (http://www.inkscape.org/) -->

<svg
   width="30.984049"
   height="36.812473"
   viewBox="0 0 8.1978632 9.7399669"
   version="1.1"
   id="svg5"
   inkscape:version="1.2 (1:1.2.1+202207142221+cd75a1ee6d)"
   sodipodi:docname="site_design.svg"
   xml:space="preserve"
   xmlns:inkscape="http://www.inkscape.org/namespaces/inkscape"
   xmlns:sodipodi="http://sodipodi.sourceforge.net/DTD/sodipodi-0.dtd"
   xmlns="http://www.w3.org/2000/svg"
   xmlns:svg="http://www.w3.org/2000/svg"><sodipodi:namedview
     id="namedview7"
     pagecolor="#ffffff"
     bordercolor="#000000"
     borderopacity="0.25"
     inkscape:showpageshadow="2"
     inkscape:pageopacity="0.0"
     inkscape:pagecheckerboard="0"
     inkscape:deskcolor="#d1d1d1"
     inkscape:document-units="px"
     showgrid="true"
     inkscape:zoom="0.9927668"
     inkscape:cx="474.43166"
     inkscape:cy="302.18577"
     inkscape:window-width="1920"
     inkscape:window-height="1043"
     inkscape:window-x="0"
     inkscape:window-y="0"
     inkscape:window-maximized="1"
     inkscape:current-layer="layer1" /><defs
     id="defs2" /><g
     inkscape:label="Layer 1"
     inkscape:groupmode="layer"
     id="layer1"
     transform="translate(36.954812,-68.372132)"><g
       id="g17180"
       inkscape:label="paper-button-orange"
       transform="matrix(0.56285616,0,0,0.56285616,-109.10413,41.639494)"><rect
         style="fill:#ff7419;fill-opacity:1;stroke:#234378;stroke-width:0.72297;stroke-dasharray:none;stroke-opacity:1"
         id="rect17176"
         width="13.841782"
         height="16.581568"
         x="128.54578"
         y="47.856106"
         ry="3.7219434"
         inkscape:label="paper-hand" /><path
         d="m 138.65497,52.319656 c -0.0758,0 -0.15011,0.0067 -0.2226,0.02075 -0.18193,-0.619964 -0.69403,-1.067932 -1.29564,-1.067932 -0.12253,0 -0.2414,0.01858 -0.3545,0.05343 -0.2414,-0.447356 -0.6722,-0.745923 -1.16373,-0.745923 -0.49154,0 -0.92424,0.299873 -1.16525,0.748923 -0.11197,-0.03455 -0.22964,-0.05306 -0.3511,-0.05306 -0.75342,0 -1.36813,0.702388 -1.36813,1.565697 v 2.644261 c -0.0994,-0.02172 -0.20116,-0.03478 -0.30364,-0.03478 -4e-5,0 5e-5,0 0,0 -0.82706,0 -1.51843,0.765453 -1.51843,1.741826 0,0.441222 0.14343,0.859384 0.40727,1.184048 l 1.54196,1.897092 c 0.74375,0.915703 1.79703,1.439773 2.88826,1.439773 h 0.62779 c 2.01015,0 3.64416,-1.872301 3.64416,-4.175159 v -3.653258 c 0,-0.863301 -0.61299,-1.565681 -1.36642,-1.565681 z m 0.45548,5.218942 c 0,1.72682 -1.2258,3.13137 -2.71575,3.13137 h -0.64526 c -0.84281,0 -1.64786,-0.401424 -2.22232,-1.108154 l -1.51369,-1.862078 c -0.1177,-0.144802 -0.1785,-0.334888 -0.1785,-0.502324 0,-0.481885 0.35166,-0.682813 0.59495,-0.682813 0.16246,0 0.32453,0.07425 0.44447,0.221368 l 0.50709,0.623881 c 0.0318,0.02 0.0716,0.03522 0.10962,0.03522 0.0779,0 0.15304,-0.06895 0.15304,-0.174317 v -4.379215 c 0,-0.288128 0.20401,-0.521892 0.43839,-0.521892 0.25146,0 0.43839,0.233764 0.43839,0.521892 v 3.305328 c 0.0349,0.191362 0.17149,0.347933 0.33849,0.347933 0.16701,0 0.28657,-0.155758 0.28657,-0.328359 l 0.0171,-4.02076 c 0,-0.288135 0.20402,-0.521899 0.43839,-0.521899 0.25146,0 0.4384,0.233764 0.4384,0.521899 v 4.001186 c 0.0342,0.191362 0.17079,0.347933 0.3378,0.347933 0.16701,0 0.30346,-0.155788 0.30346,-0.328359 l 1.4e-4,-3.309679 c 0,-0.288135 0.20402,-0.521899 0.43839,-0.521899 0.25147,0 0.4384,0.233764 0.4384,0.521899 v 3.309679 c 0.0342,0.171788 0.17084,0.328359 0.33785,0.328359 0.167,0 0.28656,-0.155758 0.28656,-0.328359 v -2.281112 c 0,-0.288128 0.20402,-0.521899 0.4384,-0.521899 0.25145,0 0.43839,0.233771 0.43839,0.521899 v 3.653261 z"
         id="path17178"
         style="fill:#234378;fill-opacity:1;stroke:#ff7419;stroke-width:0.144595;stroke-dasharray:none;stroke-opacity:1"
         inkscape:label="hand-icon" /></g></g></svg>
