<?xml version="1.0" encoding="UTF-8" standalone="no"?>
<!-- Created with Inkscape (http://www.inkscape.org/) -->

<svg
   width="30.984041"
   height="36.812473"
   viewBox="0 0 8.1978612 9.7399669"
   version="1.1"
   id="svg5"
   inkscape:version="1.2 (1:1.2.1+202207142221+cd75a1ee6d)"
   sodipodi:docname="site_design.svg"
   xml:space="preserve"
   xmlns:inkscape="http://www.inkscape.org/namespaces/inkscape"
   xmlns:sodipodi="http://sodipodi.sourceforge.net/DTD/sodipodi-0.dtd"
   xmlns="http://www.w3.org/2000/svg"
   xmlns:svg="http://www.w3.org/2000/svg"><sodipodi:namedview
     id="namedview7"
     pagecolor="#ffffff"
     bordercolor="#000000"
     borderopacity="0.25"
     inkscape:showpageshadow="2"
     inkscape:pageopacity="0.0"
     inkscape:pagecheckerboard="0"
     inkscape:deskcolor="#d1d1d1"
     inkscape:document-units="px"
     showgrid="true"
     inkscape:zoom="0.9927668"
     inkscape:cx="474.43166"
     inkscape:cy="302.18577"
     inkscape:window-width="1920"
     inkscape:window-height="1043"
     inkscape:window-x="0"
     inkscape:window-y="0"
     inkscape:window-maximized="1"
     inkscape:current-layer="layer1" /><defs
     id="defs2" /><g
     inkscape:label="Layer 1"
     inkscape:groupmode="layer"
     id="layer1"
     transform="translate(-106.52723,-51.27691)"><g
       id="g4197"
       inkscape:label="bg-full"
       sodipodi:insensitive="true"><rect
         style="fill:#dbe5f5;fill-opacity:1;stroke:#e9792f;stroke-width:0.0155239"
         id="rect305"
         width="270.91782"
         height="190.48448"
         x="0.0077619748"
         y="0.0077619748"
         inkscape:label="background"
         sodipodi:insensitive="true" /><rect
         style="fill:#244479;fill-opacity:1;stroke:none;stroke-width:2.64583;stroke-dasharray:none"
         id="rect4192"
         width="39.592037"
         height="190.48448"
         x="231.33353"
         y="0.0077619748"
         inkscape:label="rightborder"
         sodipodi:insensitive="true" /><rect
         style="fill:#244479;fill-opacity:1;stroke:none;stroke-width:2.64583;stroke-dasharray:none"
         id="rect2843"
         width="39.592037"
         height="190.48448"
         x="0.0077619748"
         y="0.0077619748"
         inkscape:label="leftborder"
         sodipodi:insensitive="true" /><g
         id="g4509"
         inkscape:label="footer"
         sodipodi:insensitive="true"><rect
           style="fill:#244479;fill-opacity:1;stroke:none;stroke-width:1.82401;stroke-dasharray:none"
           id="rect4293"
           width="270.93332"
           height="13.229167"
           x="0"
           y="177.27083"
           inkscape:label="footer-bg"
           sodipodi:insensitive="true" /><text
           xml:space="preserve"
           style="font-style:normal;font-variant:normal;font-weight:normal;font-stretch:normal;font-size:3.95189px;font-family:'Abyssinica SIL';-inkscape-font-specification:'Abyssinica SIL, Normal';font-variant-ligatures:normal;font-variant-caps:normal;font-variant-numeric:normal;font-variant-east-asian:normal;fill:#dbe5f5;fill-opacity:1;stroke:none;stroke-width:0.823309;stroke-dasharray:none"
           x="107.70985"
           y="184.88882"
           id="text4349"
           inkscape:label="text-footer"
           sodipodi:insensitive="true"><tspan
             sodipodi:role="line"
             id="tspan4401"
             x="107.70985"
             y="184.88882"
             style="stroke-width:0.823309"
             inkscape:label="tspan4401">2022 Copyright Lamar Stevens</tspan></text></g></g><g
       id="g4206"
       inkscape:label="rock-button"
       transform="matrix(0.56285616,0,0,0.56285616,59.218423,24.544267)"><rect
         style="fill:#bcc9df;fill-opacity:1;stroke:#234378;stroke-width:0.72297;stroke-dasharray:none;stroke-opacity:1"
         id="rect3391"
         width="13.841782"
         height="16.581568"
         x="84.412811"
         y="47.856106"
         ry="3.7219434"
         inkscape:label="rock-fist" /><path
         d="M 94.331566,52.003588 C 94.057878,51.630127 93.611791,51.40155 93.126914,51.40155 h -0.291575 c -0.07581,0 -0.151691,0.006 -0.226921,0.01754 -0.265934,-0.203656 -0.593494,-0.318056 -0.940456,-0.318056 h -0.290919 c -0.08571,0 -0.170339,0.0079 -0.253218,0.02328 -0.248905,-0.351432 -0.660515,-0.581308 -1.12599,-0.581308 h -0.344813 c -0.760714,0 -1.379208,0.614927 -1.379208,1.373648 v 1.066939 l -0.71029,0.635098 c -0.425401,0.358432 -0.668918,0.886428 -0.668918,1.450915 v 1.694947 c 0,0.688969 0.368723,1.323209 0.96221,1.655246 l 0.761804,0.427334 v 2.169929 c 0,0.285463 0.230584,0.515122 0.49781,0.515122 0.267217,0 0.536592,-0.229659 0.536592,-0.515122 V 58.22899 c -0.02836,-0.01403 -0.05978,-0.0197 -0.08754,-0.03515 L 88.363419,57.521183 C 88.095373,57.372634 87.929011,57.080738 87.929011,56.76523 v -1.695596 c 0,-0.264218 0.113803,-0.510183 0.312478,-0.673731 l 0.377126,-0.337194 v 0.94868 c 0,0.188876 0.155161,0.34341 0.344798,0.34341 0.189645,0 0.344806,-0.153593 0.344806,-0.34341 v -3.090707 c 0,-0.189473 0.154899,-0.34341 0.344798,-0.34341 h 0.344813 c 0.189638,0 0.344798,0.153892 0.344798,0.34341 v 0.34341 c 0,0.205578 0.171153,0.344276 0.34803,0.344276 0.138616,0 0.265285,-0.08624 0.317433,-0.218286 0.0091,-0.02209 0.116803,-0.25477 0.368947,-0.25477 h 0.291568 c 0.451908,0 0.386185,0.420252 0.738521,0.420252 0.17622,0 0.213353,-0.119849 0.428423,-0.119849 h 0.291575 c 0.550391,0 0.393723,0.605905 0.833124,0.605905 0.0037,0 0.0067,-4.5e-5 0.01007,-1.57e-4 l 0.324612,-0.0045 c 0.273688,0 0.530137,0.251121 0.530137,0.558039 v 2.790221 c 0,0.775893 -0.421087,1.444908 -1.034409,1.796258 v 2.839586 c 0,0.285672 0.230584,0.515331 0.497809,0.515331 0.267226,0 0.5366,-0.229659 0.5366,-0.515115 v -2.320179 c 0.648657,-0.581651 1.03441,-1.423013 1.03441,-2.315881 V 53.59101 c 0,-0.856392 -0.672366,-1.557376 -1.527906,-1.587211 z"
         id="path3762"
         style="fill:#234378;fill-opacity:1;stroke:#e9792f;stroke-width:0.144581;stroke-dasharray:none;stroke-opacity:1"
         inkscape:label="fist-icon" /></g></g></svg>
