<?xml version="1.0" encoding="UTF-8" standalone="no"?>
<!-- Created with Inkscape (http://www.inkscape.org/) -->

<svg
   width="30.983984"
   height="36.812473"
   viewBox="0 0 8.197846 9.7399669"
   version="1.1"
   id="svg5"
   xml:space="preserve"
   xmlns="http://www.w3.org/2000/svg"
   xmlns:svg="http://www.w3.org/2000/svg"><defs
     id="defs2" /><g
     id="layer1"
     transform="translate(-156.20827,-51.27691)"><g
       id="g4197"><rect
         style="fill:#dbe5f5;fill-opacity:1;stroke:#e9792f;stroke-width:0.0155239"
         id="rect305"
         width="270.91782"
         height="190.48448"
         x="0.0077619748"
         y="0.0077619748" /><rect
         style="fill:#244479;fill-opacity:1;stroke:none;stroke-width:2.64583;stroke-dasharray:none"
         id="rect4192"
         width="39.592037"
         height="190.48448"
         x="231.33353"
         y="0.0077619748" /><rect
         style="fill:#244479;fill-opacity:1;stroke:none;stroke-width:2.64583;stroke-dasharray:none"
         id="rect2843"
         width="39.592037"
         height="190.48448"
         x="0.0077619748"
         y="0.0077619748" /><g
         id="g4509"><rect
           style="fill:#244479;fill-opacity:1;stroke:none;stroke-width:1.82401;stroke-dasharray:none"
           id="rect4293"
           width="270.93332"
           height="13.229167"
           x="0"
           y="177.27083" /><text
           xml:space="preserve"
           style="font-style:normal;font-variant:normal;font-weight:normal;font-stretch:normal;font-size:3.95189px;font-family:'Abyssinica SIL';-inkscape-font-specification:'Abyssinica SIL, Normal';font-variant-ligatures:normal;font-variant-caps:normal;font-variant-numeric:normal;font-variant-east-asian:normal;fill:#dbe5f5;fill-opacity:1;stroke:none;stroke-width:0.823309;stroke-dasharray:none"
           x="107.70985"
           y="184.88882"
           id="text4349"><tspan
             id="tspan4401"
             x="107.70985"
             y="184.88882"
             style="stroke-width:0.823309">2022 Copyright Lamar Stevens</tspan></text></g></g><g
       id="g4214"
       transform="matrix(0.56285616,0,0,0.56285616,59.218423,24.544267)"><rect
         style="fill:#bcc9df;fill-opacity:1;stroke:#234378;stroke-width:0.72297;stroke-dasharray:none;stroke-opacity:1"
         id="rect3397"
         width="13.841782"
         height="16.581568"
         x="172.67876"
         y="47.856106"
         ry="3.7219434" /><path
         d="m 175.10285,56.222926 c -0.015,0.966904 -0.16597,1.939347 -0.0397,2.901378 0.24834,1.445614 1.62644,2.568768 3.09573,2.491599 0.90583,0.0094 1.81928,0.171578 2.71907,0.03264 0.72786,-0.185439 1.36311,-0.610124 2.03396,-0.934802 0.74803,-0.421457 0.96313,-1.305922 0.94005,-2.103775 0.0951,-0.753027 -0.0505,-1.590153 -0.68792,-2.079191 -0.32126,-0.16373 -0.27783,-0.408375 -0.1116,-0.680268 0.33535,-0.857688 0.7238,-1.697041 1.02129,-2.567827 0.28818,-1.074524 -0.79173,-2.24008 -1.88964,-1.910468 -0.49078,-0.102215 -1.02238,1.051696 -1.06399,0.856163 0.0868,-1.114593 -1.21579,-2.046492 -2.22035,-1.487728 -0.73476,0.343038 -0.94117,1.193096 -0.85884,1.933922 0.0106,0.491848 0.0213,0.983696 0.0319,1.475544 -0.91173,-0.05186 -1.55721,0.61331 -2.37269,0.881043 -0.35856,0.287674 -0.57708,0.735084 -0.59727,1.191768 z m 1.02097,0.02716 c 0.054,-0.888977 1.22899,-0.192644 1.42411,-0.999293 0.57828,-0.491367 1.26641,0.758977 1.56788,-0.07788 -0.009,-1.048923 -0.0692,-2.100655 -0.0474,-3.147754 0.15727,-0.738932 1.22004,-0.371851 1.03387,0.303862 0.0318,1.145712 0.0356,2.293976 0.0849,3.438099 0.28614,0.619048 0.76704,-0.01208 0.82962,-0.412894 0.38851,-0.917684 0.71971,-1.864681 1.14549,-2.763306 0.48581,-0.640145 1.24524,0.250183 0.79857,0.773146 -0.65161,1.590172 -1.30321,3.180343 -1.95482,4.770515 -0.0775,0.799243 0.7692,0.3816 0.78018,-0.153914 0.13077,-0.319991 0.26154,-0.639981 0.39231,-0.959972 0.37453,0.311324 0.78516,0.707163 0.66699,1.246319 -0.0471,0.57465 0.0853,1.355034 -0.58274,1.619695 -0.74888,0.348488 -1.47486,0.917784 -2.35084,0.772492 -0.83504,-0.06863 -1.68738,-0.01488 -2.50839,-0.185746 -0.99262,-0.306331 -1.51947,-1.41144 -1.36438,-2.398861 0.0283,-0.608053 0.0557,-1.217029 0.0846,-1.824507 z"
         id="path4575"
         style="fill:#234378;fill-opacity:1;stroke:#ff7419;stroke-width:0.144595;stroke-dasharray:none;stroke-opacity:1" /></g></g></svg>
