<?xml version="1.0" encoding="UTF-8" standalone="no"?>
<!-- Created with Inkscape (http://www.inkscape.org/) -->

<svg
   width="30.984041"
   height="36.812462"
   viewBox="0 0 8.1978612 9.7399639"
   version="1.1"
   id="svg5"
   inkscape:version="1.2 (1:1.2.1+202207142221+cd75a1ee6d)"
   sodipodi:docname="site_design.svg"
   xml:space="preserve"
   xmlns:inkscape="http://www.inkscape.org/namespaces/inkscape"
   xmlns:sodipodi="http://sodipodi.sourceforge.net/DTD/sodipodi-0.dtd"
   xmlns="http://www.w3.org/2000/svg"
   xmlns:svg="http://www.w3.org/2000/svg"><sodipodi:namedview
     id="namedview7"
     pagecolor="#ffffff"
     bordercolor="#000000"
     borderopacity="0.25"
     inkscape:showpageshadow="2"
     inkscape:pageopacity="0.0"
     inkscape:pagecheckerboard="0"
     inkscape:deskcolor="#d1d1d1"
     inkscape:document-units="px"
     showgrid="true"
     inkscape:zoom="0.9927668"
     inkscape:cx="474.43166"
     inkscape:cy="302.18577"
     inkscape:window-width="1920"
     inkscape:window-height="1043"
     inkscape:window-x="0"
     inkscape:window-y="0"
     inkscape:window-maximized="1"
     inkscape:current-layer="layer1" /><defs
     id="defs2" /><g
     inkscape:label="Layer 1"
     inkscape:groupmode="layer"
     id="layer1"
     transform="translate(36.987275,-47.724812)"><g
       id="g17186"
       inkscape:label="scissor-button-orange"
       transform="matrix(0.56285616,0,0,0.56285616,-133.97711,20.992174)"><rect
         style="fill:#ff7419;fill-opacity:1;stroke:#244479;stroke-width:0.72297;stroke-dasharray:none;stroke-opacity:1"
         id="rect17182"
         width="13.841782"
         height="16.581568"
         x="172.67876"
         y="47.856106"
         ry="3.7219434"
         inkscape:label="scissor-hand" /><path
         d="m 175.10285,56.222926 -0.0978,2.119147 c -0.0793,1.717916 1.19283,3.179951 2.83752,3.258688 l 2.29281,0.109766 c 0.49829,0.02388 0.99907,-0.0846 1.44834,-0.313695 l 1.21808,-0.62165 c 0.60025,-0.307232 0.99397,-0.94774 1.02512,-1.622956 l 0.0469,-1.016507 c 0.0266,-0.576315 -0.19564,-1.127676 -0.61019,-1.512772 l -0.38214,-0.353611 1.10929,-2.718156 c 0.0716,-0.176585 0.11006,-0.359111 0.11845,-0.540898 0.03,-0.649687 -0.32548,-1.281598 -0.93132,-1.550055 -0.95265,-0.427983 -1.77421,0.207876 -2.03634,0.858153 l -0.0184,0.04567 -0.005,-0.219457 c -0.0167,-0.837579 -0.67079,-1.52413 -1.48039,-1.562891 -0.8436,-0.04037 -1.56509,0.646687 -1.60567,1.526414 -10e-4,0.03776 -0.002,0.07583 -10e-4,0.114199 l 0.0417,1.9278 -0.17299,-0.0083 c -0.46983,-0.02246 -0.9266,0.184466 -1.2337,0.549331 -0.82685,-0.0099 -1.52258,0.668276 -1.56242,1.531779 z m 1.02097,0.02716 c 0.0143,-0.310336 0.26033,-0.551458 0.54911,-0.53763 0,0 0.30404,0.01545 0.31254,0.01582 0.1465,0.0067 0.30584,-0.07433 0.35893,-0.214242 0.0847,-0.221293 0.28892,-0.363126 0.50736,-0.352671 l 0.2875,0.01381 c 0.36082,0.01731 0.33482,0.313179 0.62147,0.326903 0.19301,0.0093 0.34652,-0.143743 0.35508,-0.329164 2.7e-4,-0.0079 5.4e-4,-0.01582 2.7e-4,-0.02381 0,0 -0.0641,-2.99838 -0.0635,-3.011365 0.0143,-0.309903 0.26048,-0.549935 0.54629,-0.536249 0.28219,0.01351 0.49377,0.255711 0.49952,0.546629 l 0.0767,3.543383 c 10e-4,0.05806 0.0469,0.325851 0.32892,0.339358 0.14184,0.0067 0.27159,-0.07992 0.32619,-0.215375 l 1.25572,-3.102886 c 0.0839,-0.157563 0.23572,-0.354611 0.50559,-0.341694 0.23672,0.01134 0.51477,0.225249 0.49808,0.587122 -0.003,0.06589 -0.017,0.132377 -0.0429,0.196749 l -2.04058,4.979806 c -0.0158,0.03828 -0.0243,0.07787 -0.026,0.117087 -0.009,0.193906 0.14076,0.353768 0.30489,0.361626 0.13842,0.0067 0.27371,-0.07513 0.33016,-0.213883 l 0.56344,-1.378716 0.37906,0.350858 c 0.20732,0.196414 0.30856,0.44852 0.29627,0.714708 l -0.0469,1.016507 c -0.0148,0.319649 -0.19227,0.604173 -0.4636,0.742797 l -1.21788,0.621874 c -0.29248,0.14934 -0.61838,0.220256 -0.94243,0.204741 l -2.29281,-0.109766 c -1.0818,-0.05179 -1.91853,-1.025798 -1.86567,-2.171503 l 0.0988,-2.140788 z"
         id="path17184"
         style="fill:#234378;fill-opacity:1;stroke:#ff7419;stroke-width:0.144595;stroke-dasharray:none;stroke-opacity:1"
         inkscape:label="scissor-icon" /></g></g></svg>
